# xmcd
#
# Track frame offsets: 
#        180
#        18724
#        36583
#        52002
#        67843
#        83380
#        97559
#        111967
#        124574
#        140902
#        158361
#        177066
#        195021
#        208504
#        223028
#
# Disc length: 3215 seconds
#
# Revision: 0
# Processed by: cddbd v1.5.2PL0 Copyright (c) Steve Scherf et al.
# Submitted via: ExactAudioCopyFreeDBPlugin 1.0
#
DISCID=be0c8d0f
DTITLE=Bezu - out le monde à la queuleuleu
DYEAR=1994
DGENRE=Dance
TTITLE0=La queleuleu
TTITLE1=La chenille
TTITLE2=La danse des canards
TTITLE3=Viens boire un petit coup à la maison
TTITLE4=La fête au village
TTITLE5=On va faire la java
TTITLE6=C'est bon pour le moral
TTITLE7=La ganbadou
TTITLE8=E viva Espana
TTITLE9=El compilator
TTITLE10=Le vent du large
TTITLE11=La bezumania
TTITLE12=Le bal à papa
TTITLE13=Le tube
TTITLE14=Le roi de la fête
EXTD=
EXTT0=
EXTT1=
EXTT2=
EXTT3=
EXTT4=
EXTT5=
EXTT6=
EXTT7=
EXTT8=
EXTT9=
EXTT10=
EXTT11=
EXTT12=
EXTT13=
EXTT14=
PLAYORDER=
